User Type,Username,Date,Text
,sskain,2012-03-19T14:17Z,".cue


REM GENRE Punk Rock
REM DATE 1981
PERFORMER ""The Stranglers""
TITLE ""La Folie""
FILE ""The Stranglers - La Folie side 1.flac"" WAVE
TRACK 01 AUDIO
TITLE ""Non Stop""
INDEX 01 00:00:00
TRACK 02 AUDIO
TITLE ""Everybody Loves You When You're Dead""
INDEX 01 02:33:66
TRACK 03 AUDIO
TITLE ""Tramp""
INDEX 01 05:15:30
TRACK 04 AUDIO
TITLE ""Let Me Introduce You To The Family""
INDEX 01 08:21:62
TRACK 05 AUDIO
TITLE ""Ain't Nothin' To It""
INDEX 01 11:31:68
TRACK 06 AUDIO
TITLE ""The Man They Love To Hate""
INDEX 01 15:32:62
FILE ""The Stranglers - La Folie side 2.flac"" WAVE
TRACK 07 AUDIO
TITLE ""Pin Up""
INDEX 01 00:00:00
TRACK 08 AUDIO
TITLE ""It Only Takes Two To Tango""
INDEX 01 02:55:57
TRACK 09 AUDIO
TITLE ""Golden Brown""
INDEX 01 06:38:08
TRACK 10 AUDIO
TITLE ""How To Find True Love And Happiness In The Present Day""
INDEX 01 10:09:04
TRACK 11 AUDIO
TITLE ""La Folie""
INDEX 01 13:20:05 "
